# xmcd
# 
# Track frame offsets:
#     150
#     18126
#     44081
#     65258
#     80933
#     101481
#     123611
#     142196
#     166913
#     188221
#     208651
# 
# Disc length: 3066
# 
# Revision: 15
# Processed by: cddbd v1.5.2PL0 Copyright (c) Steve Scherf et al.
# Submitted via: fre:ac v1.1beta1pre5
# 
DISCID=a10bf80b
DTITLE=Zucchero - Bluesugar
DYEAR=1998
DGENRE=Rock
TTITLE0=you make me feel loved
TTITLE1=blu
TTITLE2=arcord
TTITLE3=puro amore
TTITLE4=back 2 u
TTITLE5=donkey tonkey
TTITLE6=(Temporaneamente) x sempre tuo
TTITLE7=eccetera eccetera
TTITLE8=karma, stai kalma (feat. Irene Fornaciari)
TTITLE9=dopo di noi
TTITLE10=i tempi cambieranno
EXTD=In memory of Franco Mamone YEAR: 1998
EXTT0=
EXTT1=
EXTT2=
EXTT3=
EXTT4=
EXTT5=
EXTT6=
EXTT7=
EXTT8=
EXTT9=
EXTT10=
PLAYORDER=
